<svg class="icon face_chooser" xmlns="http://www.w3.org/2000/svg" viewBox="0 0 100 100" style=""><g id="default"><path fill="#AFAFAF" d="M15,33.7c0,0,14.9-2.9,28.1,6.3c13.2,9.1,17.4,13.4,21.2,12.3c1.4-0.5,0.8-4.8,0.7-5.6c-0.8-4.2,0.1-11.1,1.7-13.2c3.2,0,19.2,0,19.2,0s3,9.6,0.9,18.3c-2.1,8.7-4.3,14.9-17.6,14.9S46.9,57.1,42,51.6S30.7,37.1,14.7,37.1c-2.1,0-2.1,0-2.1,0S12,34.9,15,33.7z"></path><path fill="#999999" d="M15,33.7c0,0,14.9-2.9,28.1,6.3c1.8,1.2,5.9,4.2,5.9,4.2l-7.1,7.4C37,46.1,30.6,37.1,14.6,37.1c-2.1,0-2.1,0-2.1,0S12,34.9,15,33.7z"></path><g id="accessory_10_"><path fill="#8C8C8C" d="M50,44.8c0,0-0.1,5.7-7.4,7.4c-1.3-1.4-2.4-2.7-2.4-2.7s5.8-1.1,6.7-6.9C48.9,44,50,44.8,50,44.8z"></path></g></g><g id="active"><path fill="#78C557" d="M15,33.7c0,0,14.9-2.9,28.1,6.3c13.2,9.1,17.4,13.4,21.2,12.3c1.4-0.5,0.8-4.8,0.7-5.6c-0.8-4.2,0.1-11.1,1.7-13.2c3.2,0,19.2,0,19.2,0s3,9.6,0.9,18.3c-2.1,8.7-4.3,14.9-17.6,14.9S46.9,57.1,42,51.6S30.7,37.1,14.7,37.1c-2.1,0-2.1,0-2.1,0S12,34.9,15,33.7z"></path><path fill="#64A044" d="M15,33.7c0,0,14.9-2.9,28.1,6.3c1.8,1.2,5.9,4.2,5.9,4.2l-7.1,7.4C37,46.1,30.6,37.1,14.6,37.1c-2.1,0-2.1,0-2.1,0S12,34.9,15,33.7z"></path><g id="accessory_1_"><path fill="#6DB24D" d="M50,44.8c0,0-0.1,5.7-7.4,7.4c-1.3-1.4-2.4-2.7-2.4-2.7s5.8-1.1,6.7-6.9C48.9,44,50,44.8,50,44.8z"></path></g></g></svg>