<svg class="icon droid" xmlns="http://www.w3.org/2000/svg" viewBox="0 0 100 100" style=";fill:#e1c492;">
      <g display="inline">
            <path d="M70.5,67.1c0,2.7-2.2,4.9-4.9,4.9h-3.3v10.1c0,2.5-2,4.6-4.6,4.6c-2.5,0-4.6-2-4.6-4.6V72H47v10.1 c0,2.5-2,4.6-4.6,4.6c-2.5,0-4.6-2-4.6-4.6V72h-3.3c-2.7,0-4.9-2.2-4.9-4.9V37.5h40.8L70.5,67.1L70.5,67.1z"></path>
            <path d="M29.6,35.9h41.1c0-7.1-4.2-13.2-10.5-16.4l3.2-5.8c0.2-0.3,0.1-0.7-0.3-0.9c-0.3-0.2-0.7-0.1-0.9,0.3 L59,19c-2.7-1.2-5.7-1.9-8.9-1.9s-6.2,0.7-8.9,1.9L38,13c-0.2-0.3-0.6-0.4-0.9-0.3c-0.3,0.2-0.4,0.6-0.3,0.9l3.2,5.8 C33.8,22.7,29.6,28.9,29.6,35.9z M57.8,26.7c0-1,0.8-1.7,1.7-1.7c1,0,1.7,0.8,1.7,1.7c0,1-0.8,1.7-1.7,1.7 C58.5,28.5,57.8,27.7,57.8,26.7z M39,26.7c0-1,0.8-1.7,1.7-1.7c1,0,1.7,0.8,1.7,1.7c0,1-0.8,1.7-1.7,1.7 C39.8,28.5,39,27.7,39,26.7z"></path>
            <path d="M76.8,36.6c2.5,0,4.6,2,4.6,4.6v19.1c0,2.5-2,4.6-4.6,4.6c-2.5,0-4.6-2-4.6-4.6V41.2 C72.2,38.7,74.3,36.6,76.8,36.6z"></path>
            <path d="M23.4,36.6c2.5,0,4.6,2,4.6,4.6v19.1c0,2.5-2,4.6-4.6,4.6c-2.5,0-4.6-2-4.6-4.6V41.2 C18.8,38.7,20.8,36.6,23.4,36.6z"></path>
      </g>
</svg>
