<svg class="icon glasses_chooser" xmlns="http://www.w3.org/2000/svg" viewBox="0 0 100 100" style=""><g id="default"><circle fill="#C1C1C1" cx="32.4" cy="50" r="11.4"></circle><circle fill="#C1C1C1" cx="67.3" cy="50" r="11.4"></circle><path fill="#A7A7A7" d="M85.4,49v-1.5l0,0c0,0,0.1-1.4-1.7-1.4H81c0,0-1.3,0.1-1.5-0.6v0.1c-1.8-5.3-6.9-9.2-12.8-9.2c-5.9,0-10.8,3.7-12.7,8.9c0,0.1-0.1,0.4-0.3,0.5s-0.5-0.1-0.6-0.2c-1-0.6-1.8-0.9-3.1-0.9s-2.1,0.3-3.1,0.9c-0.1,0.1-0.4,0.2-0.6,0.2c-0.2-0.1-0.3-0.3-0.3-0.5c-1.9-5.2-6.9-8.9-12.7-8.9c-6,0-11,3.8-12.8,9.2v-0.1c-0.3,0.7-1.5,0.6-1.5,0.6h-2.7c-1.8,0-1.7,1.4-1.7,1.4V49c0,0-0.1,1.4,1.7,1.4h1.1c0,0,2.1,0,2.7,2.1l0,0c1.2,6.2,6.7,11,13.3,11c7.5,0,13.6-6.1,13.6-13.6c0-1.6,1.3-2.8,3.3-2.8s3.3,1.3,3.3,2.8c0,7.5,6.1,13.6,13.6,13.6c6.6,0,12.1-4.7,13.3-11l0,0c0.6-2.1,2.7-2.1,2.7-2.1h1.1C85.5,50.5,85.4,49,85.4,49z M33,59.8c-5.5,0-9.9-4.5-9.9-9.9c0-5.5,4.5-9.9,9.9-9.9c5.5,0,9.9,4.5,9.9,9.9S38.5,59.8,33,59.8z M66.7,59.8c-5.5,0-9.9-4.5-9.9-9.9c0-5.5,4.4-9.9,9.9-9.9s9.9,4.5,9.9,9.9C76.6,55.3,72.2,59.8,66.7,59.8z"></path></g><g id="active"><circle fill="#78C557" cx="32.4" cy="50" r="11.4"></circle><circle fill="#78C557" cx="67.3" cy="50" r="11.4"></circle><path fill="#6DB24D" d="M85.4,49v-1.5l0,0c0,0,0.1-1.4-1.7-1.4H81c0,0-1.3,0.1-1.5-0.6v0.1c-1.8-5.3-6.9-9.2-12.8-9.2c-5.9,0-10.8,3.7-12.7,8.9c0,0.1-0.1,0.4-0.3,0.5s-0.5-0.1-0.6-0.2c-1-0.6-1.8-0.9-3.1-0.9s-2.1,0.3-3.1,0.9c-0.1,0.1-0.4,0.2-0.6,0.2c-0.2-0.1-0.3-0.3-0.3-0.5c-1.9-5.2-6.9-8.9-12.7-8.9c-6,0-11,3.8-12.8,9.2v-0.1c-0.3,0.7-1.5,0.6-1.5,0.6h-2.7c-1.8,0-1.7,1.4-1.7,1.4V49c0,0-0.1,1.4,1.7,1.4h1.1c0,0,2.1,0,2.7,2.1l0,0c1.2,6.2,6.7,11,13.3,11c7.5,0,13.6-6.1,13.6-13.6c0-1.6,1.3-2.8,3.3-2.8s3.3,1.3,3.3,2.8c0,7.5,6.1,13.6,13.6,13.6c6.6,0,12.1-4.7,13.3-11l0,0c0.6-2.1,2.7-2.1,2.7-2.1h1.1C85.5,50.5,85.4,49,85.4,49z M33,59.8c-5.5,0-9.9-4.5-9.9-9.9c0-5.5,4.5-9.9,9.9-9.9c5.5,0,9.9,4.5,9.9,9.9C43,55.5,38.5,59.8,33,59.8z M66.7,59.8c-5.5,0-9.9-4.5-9.9-9.9c0-5.5,4.4-9.9,9.9-9.9s9.9,4.5,9.9,9.9C76.7,55.5,72.2,59.8,66.7,59.8z"></path></g></svg>