<svg class="icon hair_chooser" xmlns="http://www.w3.org/2000/svg" viewBox="0 0 100 100" style=""><g id="default"><path fill="#D3D3D3" d="M65.3,47.2l4.9-8.5c0.3-0.5,0.1-0.9-0.4-1.1c-0.5-0.3-1.1,0-1.3,0.5l-4.9,9c-4.1-1.8-8.7-2.8-13.6-2.8c-4.9,0-9.5,1-13.6,2.9l-4.9-8.9c-0.3-0.5-0.8-0.6-1.3-0.4c-0.5,0.3-0.6,0.8-0.4,1.3l4.9,8.2c-9.5,4.9-16,13.4-16,24.4h62.6C81.2,60.6,74.8,52.1,65.3,47.2z M35.6,63.8c-1.9,0-3.5-1.6-3.5-3.5c0-2,1.6-3.5,3.5-3.5c2,0,3.5,1.6,3.5,3.5C39.2,62.1,37.6,63.8,35.6,63.8z M64.2,63.8c-1.9,0-3.5-1.6-3.5-3.5c0-2,1.6-3.5,3.5-3.5c2,0,3.5,1.6,3.5,3.5S66.1,63.8,64.2,63.8z"></path><path id="hair_5_" fill="#999999" d="M67,48.1c0,0-4-1.4-9.2,1.6c-5.3,3-23.7,8.3-32.4-4.5c-5.1-7.8,0.8-15.6,5.4-17.1c-1.4,5.5,2.5,9.8,11.6,8.7C51.5,35.9,64.5,36.9,67,48.1z"></path></g><g id="active"><path fill="#78C557" d="M65.3,47.2l4.9-8.5c0.3-0.5,0.1-0.9-0.4-1.1c-0.5-0.3-1.1,0-1.3,0.5l-4.9,9c-4.1-1.8-8.7-2.8-13.6-2.8c-4.9,0-9.5,1-13.6,2.9l-4.9-8.9c-0.3-0.5-0.8-0.6-1.3-0.4c-0.5,0.3-0.6,0.8-0.4,1.3l4.9,8.2c-9.5,4.9-16,13.4-16,24.4h62.6C81.2,60.6,74.8,52.1,65.3,47.2z M35.6,63.8c-1.9,0-3.5-1.6-3.5-3.5c0-2,1.6-3.5,3.5-3.5c2,0,3.5,1.6,3.5,3.5C39.2,62.1,37.6,63.8,35.6,63.8z M64.2,63.8c-1.9,0-3.5-1.6-3.5-3.5c0-2,1.6-3.5,3.5-3.5c2,0,3.5,1.6,3.5,3.5S66.1,63.8,64.2,63.8z"></path><path id="hair_1_" fill="#6DB24D" d="M67,48.1c0,0-4-1.4-9.2,1.6c-5.3,3-23.7,8.3-32.4-4.5c-5.1-7.8,0.8-15.6,5.4-17.1c-1.4,5.5,2.5,9.8,11.6,8.7S64.5,36.9,67,48.1z"></path></g></svg>