<svg class="icon shirt_chooser" xmlns="http://www.w3.org/2000/svg" viewBox="0 0 100 100" style=""><g id="default"><path fill="#C1C1C1" d="M58.3,24.7c-0.6,3.2-3.6,5.6-8.2,5.6c-4.6,0-7.6-2.4-8.2-5.6L19,28v15l0,0l13,1.5v30.8h36.1V45.1L81,43.8l0,0V28.7L58.3,24.7z"></path><path fill="#AFAFAF" d="M47.7,50.2h-8.4c-0.9,0-1.6-0.7-1.6-1.6V39h11.6v9.7C49.3,49.5,48.6,50.2,47.7,50.2z"></path><rect x="37.8" y="39" fill="#999999" width="11.6" height="3.1"></rect><path fill="none" stroke="#999999" stroke-width="4" stroke-miterlimit="10" d="M58.3,24.7c-0.6,3.2-3.6,5.6-8.2,5.6c-4.6,0-7.6-2.4-8.2-5.6"></path><g><g><g><g><defs><path id="SVGID_1_" d="M58.3,24.7c-0.6,3.2-3.6,5.6-8.2,5.6c-4.6,0-7.6-2.4-8.2-5.6L19,28v15l0,0l13,1.5v30.8h36.1V45.1L81,43.8l0,0V28.7L58.3,24.7z"></path></defs><clipPath id="SVGID_2_"><use xmlns:xlink="http://www.w3.org/1999/xlink" xlink:href="#SVGID_1_" overflow="visible"></use></clipPath><line clip-path="url(#SVGID_2_)" fill="none" stroke="#999999" stroke-width="4" stroke-miterlimit="10" x1="79" y1="44.7" x2="79" y2="27.3"></line></g></g></g><g><g><g><defs><path id="SVGID_3_" d="M58.3,24.7c-0.6,3.2-3.6,5.6-8.2,5.6c-4.6,0-7.6-2.4-8.2-5.6L19,28v15l0,0l13,1.5v30.8h36.1V45.1L81,43.8l0,0V28.7L58.3,24.7z"></path></defs><clipPath id="SVGID_4_"><use xmlns:xlink="http://www.w3.org/1999/xlink" xlink:href="#SVGID_3_" overflow="visible"></use></clipPath><line clip-path="url(#SVGID_4_)" fill="none" stroke="#999999" stroke-width="4" stroke-miterlimit="10" x1="20.9" y1="44.3" x2="20.9" y2="26.2"></line></g></g></g><g><g><g><defs><path id="SVGID_5_" d="M58.3,24.7c-0.6,3.2-3.6,5.6-8.2,5.6c-4.6,0-7.6-2.4-8.2-5.6L19,28v15l0,0l13,1.5v30.8h36.1V45.1L81,43.8l0,0V28.7L58.3,24.7z"></path></defs><clipPath id="SVGID_6_"><use xmlns:xlink="http://www.w3.org/1999/xlink" xlink:href="#SVGID_5_" overflow="visible"></use></clipPath><polyline clip-path="url(#SVGID_6_)" fill="#C1C1C1" points="68.1,44.3 81,43.8 81,43.8 "></polyline></g></g></g></g></g><g id="active"><path fill="#78C557" d="M58.3,24.7c-0.6,3.2-3.6,5.6-8.2,5.6c-4.6,0-7.6-2.4-8.2-5.6L19,28v15l0,0l13,1.5v30.8h36.1V45.1L81,43.8l0,0V28.7L58.3,24.7z"></path><path opacity="0.1" fill="#FFFFFF" enable-background="new " d="M47.7,50.2h-8.4c-0.9,0-1.6-0.7-1.6-1.6V39h11.6v9.7C49.3,49.5,48.6,50.2,47.7,50.2z"></path><rect x="37.8" y="39" fill="#6DB24D" width="11.6" height="3.1"></rect><path fill="none" stroke="#6DB24D" stroke-width="4" stroke-miterlimit="10" d="M58.3,24.7c-0.6,3.2-3.6,5.6-8.2,5.6c-4.6,0-7.6-2.4-8.2-5.6"></path><g><g><g><defs><path id="SVGID_7_" d="M58.3,24.7c-0.6,3.2-3.6,5.6-8.2,5.6c-4.6,0-7.6-2.4-8.2-5.6L19,28v15l0,0l13,1.5v30.8h36.1V45.1L81,43.8l0,0V28.7L58.3,24.7z"></path></defs><clipPath id="SVGID_8_"><use xmlns:xlink="http://www.w3.org/1999/xlink" xlink:href="#SVGID_7_" overflow="visible"></use></clipPath><line clip-path="url(#SVGID_8_)" fill="none" stroke="#6DB24D" stroke-width="4" stroke-miterlimit="10" x1="79" y1="44.7" x2="79" y2="27.3"></line></g></g><g><g><defs><path id="SVGID_9_" d="M58.3,24.7c-0.6,3.2-3.6,5.6-8.2,5.6c-4.6,0-7.6-2.4-8.2-5.6L19,28v15l0,0l13,1.5v30.8h36.1V45.1L81,43.8l0,0V28.7L58.3,24.7z"></path></defs><clipPath id="SVGID_10_"><use xmlns:xlink="http://www.w3.org/1999/xlink" xlink:href="#SVGID_9_" overflow="visible"></use></clipPath><line clip-path="url(#SVGID_10_)" fill="none" stroke="#6DB24D" stroke-width="4" stroke-miterlimit="10" x1="20.9" y1="44.3" x2="20.9" y2="26.2"></line></g></g><g><g><defs><path id="SVGID_11_" d="M58.3,24.7c-0.6,3.2-3.6,5.6-8.2,5.6c-4.6,0-7.6-2.4-8.2-5.6L19,28v15l0,0l13,1.5v30.8h36.1V45.1L81,43.8l0,0V28.7L58.3,24.7z"></path></defs><clipPath id="SVGID_12_"><use xmlns:xlink="http://www.w3.org/1999/xlink" xlink:href="#SVGID_11_" overflow="visible"></use></clipPath><polyline clip-path="url(#SVGID_12_)" fill="#C1C1C1" points="68.1,44.3 81,43.8 81,43.8 "></polyline></g></g></g></g></svg>