<svg class="icon shoes_chooser" xmlns="http://www.w3.org/2000/svg" viewBox="0 0 100 100" style=""><g id="default"><g><path fill="#A7A7A7" d="M82.1,40.8V66H18.7c0,0-4-15.9,6.3-15.9s29.4,2.8,29.4-9.7c-7.1-3.8-8.6-9-8.6-9c35.9,0,36.3,0,36.3,0L82.1,40.8L82.1,40.8L82.1,40.8z"></path><rect x="17.9" y="60.4" fill="#C1C1C1" width="64.1" height="5.7"></rect><g><path fill="#8C8C8C" d="M61.8,44.2c0,0.6-0.6,1.2-1.3,1.2H54c-0.7,0-1.3-0.5-1.3-1.2l0,0c0-0.6,0.6-1.2,1.3-1.2h6.5C61.3,43,61.8,43.6,61.8,44.2L61.8,44.2z"></path><path fill="#8C8C8C" d="M57.1,46.4c0,0.6-0.6,1.2-1.3,1.2h-6.5c-0.7,0-1.3-0.5-1.3-1.2l0,0c0-0.6,0.6-1.2,1.3-1.2h6.5C56.5,45.2,57.1,45.8,57.1,46.4L57.1,46.4z"></path><path fill="#8C8C8C" d="M52.3,48.5c0,0.6-0.6,1.2-1.3,1.2h-6.5c-0.7,0-1.3-0.5-1.3-1.2l0,0c0-0.6,0.6-1.2,1.3-1.2H51C51.7,47.3,52.3,47.9,52.3,48.5L52.3,48.5z"></path><path fill="#8C8C8C" d="M47.6,50.8c0,0.6-0.6,1.2-1.3,1.2h-6.5c-0.7,0-1.3-0.5-1.3-1.2l0,0c0-0.6,0.6-1.2,1.3-1.2h6.5C47,49.5,47.6,50,47.6,50.8L47.6,50.8z"></path></g><path fill="#C1C1C1" d="M66.4,33.2H49.1c0,0,3.5,5,6.4,5.8h10.9L66.4,33.2L66.4,33.2z"></path><rect x="17.9" y="66.1" fill="#8C8C8C" width="64.2" height="2.4"></rect><path fill="#8C8C8C" d="M73.5,43.3c-3.8,0-6.9,3-6.9,6.7s3.1,6.7,6.9,6.7c3.8,0,6.9-3,6.9-6.7S77.3,43.3,73.5,43.3z M73.5,53.6c-2,0-3.6-1.6-3.6-3.6s1.6-3.6,3.6-3.6s3.6,1.6,3.6,3.6C77.1,51.9,75.5,53.6,73.5,53.6z"></path></g></g><g id="active"><g><path fill="#78C557" d="M82.1,40.8V66H18.7c0,0-4-15.9,6.3-15.9s29.4,2.8,29.4-9.7c-7.1-3.8-8.6-9-8.6-9c35.9,0,36.3,0,36.3,0L82.1,40.8L82.1,40.8L82.1,40.8z"></path><rect x="17.9" y="60.4" opacity="0.1" fill="#FFFFFF" enable-background="new " width="64.1" height="5.7"></rect><g><path fill="#6DB24D" d="M61.8,44.2c0,0.6-0.6,1.2-1.3,1.2H54c-0.7,0-1.3-0.5-1.3-1.2l0,0c0-0.6,0.6-1.2,1.3-1.2h6.5C61.3,43,61.8,43.6,61.8,44.2L61.8,44.2z"></path><path fill="#6DB24D" d="M57.1,46.4c0,0.6-0.6,1.2-1.3,1.2h-6.5c-0.7,0-1.3-0.5-1.3-1.2l0,0c0-0.6,0.6-1.2,1.3-1.2h6.5C56.5,45.2,57.1,45.8,57.1,46.4L57.1,46.4z"></path><path fill="#6DB24D" d="M52.3,48.5c0,0.6-0.6,1.2-1.3,1.2h-6.5c-0.7,0-1.3-0.5-1.3-1.2l0,0c0-0.6,0.6-1.2,1.3-1.2H51C51.7,47.3,52.3,47.9,52.3,48.5L52.3,48.5z"></path><path fill="#6DB24D" d="M47.6,50.8c0,0.6-0.6,1.2-1.3,1.2h-6.5c-0.7,0-1.3-0.5-1.3-1.2l0,0c0-0.6,0.6-1.2,1.3-1.2h6.5C47,49.5,47.6,50,47.6,50.8L47.6,50.8z"></path></g><path opacity="0.1" fill="#FFFFFF" enable-background="new " d="M66.4,33.2H49.1c0,0,3.5,5,6.4,5.8h10.9L66.4,33.2L66.4,33.2z"></path><rect x="17.9" y="66.1" fill="#6DB24D" width="64.2" height="2.4"></rect><path fill="#6DB24D" d="M73.5,43.3c-3.8,0-6.9,3-6.9,6.7s3.1,6.7,6.9,6.7c3.8,0,6.9-3,6.9-6.7S77.3,43.3,73.5,43.3z M73.5,53.6c-2,0-3.6-1.6-3.6-3.6s1.6-3.6,3.6-3.6s3.6,1.6,3.6,3.6C77.1,51.9,75.5,53.6,73.5,53.6z"></path></g></g></svg>