<svg class="icon arm_chooser" xmlns="http://www.w3.org/2000/svg" viewBox="0 0 100 100" style=""><g id="default"><path fill="#C1C1C1" d="M44.2,74.1h20.9c6.7,0,12-5.4,12-12l0,0c0-6.2-0.1-13.5-0.1-13.5H35.7c-8.8,0-8.4-6.4-10.1-3.2c-3.6,7-4.2,18,1.3,23.5C30.9,72.9,35.8,74.1,44.2,74.1z"></path><path fill="#AFAFAF" d="M37.6,64.9h7.9c2.5,0,4.6-2.1,4.6-4.6l0,0c0-2.4-0.5-4.4-2.9-4.6l-12.8-0.6c-3.3,0-3.2-2.5-3.8-1.2c-1.4,2.6-1.6,6.8,0.5,8.9C32.5,64.5,34.3,64.9,37.6,64.9z"></path><circle fill="#C1C1C1" cx="64.2" cy="38.9" r="13"></circle><path fill="#B1B1B1" d="M67.1,43.1l4-1.8c0,0-5.5-3-7-3c-1.4,0-7,3-7,3l4,1.8C63.8,44.8,64.6,44.8,67.1,43.1z"></path><path fill="#8C8C8C" d="M66.2,42.6l2.9-1.3l-4-1c-0.6-0.2-1.3-0.2-1.9,0l-4,1l2.9,1.3C63.8,43.8,64.4,43.8,66.2,42.6z"></path><circle fill="#8C8C8C" cx="71.4" cy="36.6" r="2"></circle><circle fill="#8C8C8C" cx="56.9" cy="36.6" r="2"></circle></g><g id="active"><path fill="#78C557" d="M44.2,74.1h20.9c6.7,0,12-5.4,12-12l0,0c0-6.2-0.1-13.5-0.1-13.5H35.7c-8.8,0-8.4-6.4-10.1-3.2c-3.6,7-4.2,18,1.3,23.5C30.9,72.9,35.8,74.1,44.2,74.1z"></path><path fill="#6DB24D" d="M37.5,64.9h7.9c2.5,0,4.6-2.1,4.6-4.6l0,0c0-2.4-0.5-4.4-2.9-4.6l-12.8-0.6c-3.3,0-3.2-2.5-3.8-1.2c-1.4,2.6-1.6,6.8,0.5,8.9C32.5,64.5,34.3,64.9,37.5,64.9z"></path><circle fill="#78C557" cx="64.2" cy="38.9" r="13"></circle><path opacity="0.2" fill="#FFFFFF" enable-background="new " d="M67.1,43.1l4-1.8c0,0-5.5-3-7-3c-1.4,0-7,3-7,3l4,1.8C63.8,44.8,64.6,44.8,67.1,43.1z"></path><path fill="#64A044" d="M66.2,42.6l2.9-1.3l-4-1c-0.6-0.2-1.3-0.2-1.9,0l-4,1l2.9,1.3C63.8,43.8,64.4,43.8,66.2,42.6z"></path><circle fill="#64A044" cx="71.4" cy="36.6" r="2"></circle><circle fill="#64A044" cx="56.9" cy="36.6" r="2"></circle></g></svg>