<svg class="icon hairColor_chooser" xmlns="http://www.w3.org/2000/svg" viewBox="0 0 100 100" style=""><g id="default"><path fill="#8C8C8C" d="M34.6,41.3c-5.1-2.2-7-6.8-5.7-12.1c-7,2.3-16,14.2-8.2,26c3.7,5.4,8.6,8.7,13.9,10.5V41.3z"></path><path fill="#989898" d="M34.6,65.8c5.7,1.9,11.8,2.2,17.4,1.5V42c-1.9,0.1-3.7,0.2-5.4,0.4c-5,0.6-9.1,0.1-12-1.1V65.8z"></path><path fill="#B0B0B0" d="M52,67.4c7.4-0.8,13.9-3.1,17.4-5V44.1C63.9,42.2,57.7,41.8,52,42V67.4z"></path><path fill="#C2C1C1" d="M69.3,44.1v18.3c0.2-0.1,0.4-0.2,0.6-0.3c8-4.6,14-2.5,14-2.5C82.1,51.2,76.3,46.5,69.3,44.1z"></path></g><g id="active"><path fill="#639F44" d="M34.6,41.3c-5.1-2.2-7-6.8-5.7-12.1c-7,2.3-16,14.2-8.2,26c3.7,5.4,8.6,8.7,13.9,10.5V41.3z"></path><path fill="#6BAC48" d="M34.6,65.8c5.7,1.9,11.8,2.2,17.4,1.5V42c-1.9,0.1-3.7,0.2-5.4,0.4c-5,0.6-9.1,0.1-12-1.1V65.8z"></path><path fill="#74BD54" d="M52,67.4c7.4-0.8,13.9-3.1,17.4-5V44.1C63.9,42.2,57.7,41.8,52,42V67.4z"></path><path fill="#7AC257" d="M69.3,44.1v18.3c0.2-0.1,0.4-0.2,0.6-0.3c8-4.6,14-2.5,14-2.5C82.1,51.2,76.3,46.5,69.3,44.1z"></path></g></svg>