<svg class="icon head_chooser" xmlns="http://www.w3.org/2000/svg" viewBox="0 0 100 100" style=""><g id="default"><ellipse fill="#C1C1C1" cx="50" cy="59.8" rx="33.2" ry="11.4"></ellipse><path fill="#C1C1C1" d="M50,28.8c-13.2,0-24,9.9-24,22.2l24,2.1L74,51C74,38.7,63.3,28.8,50,28.8z"></path><path fill="#999999" d="M73.5,46.5c0,0-5.4,3.4-23.5,3.4s-23.5-3.4-23.5-3.4s-0.8,3.3-0.5,8.2c2.6,5.2,24,4.9,24,4.9s21.4,0.3,24-4.9C74.3,49.8,73.5,46.5,73.5,46.5z"></path></g><g id="active"><ellipse fill="#78C557" cx="50" cy="59.8" rx="33.2" ry="11.4"></ellipse><path fill="#78C557" d="M50,28.8c-13.2,0-24,9.9-24,22.2l24,2.1L74,51C74,38.7,63.3,28.8,50,28.8z"></path><path fill="#6DB24D" d="M73.5,46.5c0,0-5.4,3.4-23.5,3.4s-23.5-3.4-23.5-3.4s-0.8,3.3-0.5,8.2c2.6,5.2,24,4.9,24,4.9s21.4,0.3,24-4.9C74.3,49.8,73.5,46.5,73.5,46.5z"></path></g></svg>