<svg class="icon pants_chooser" xmlns="http://www.w3.org/2000/svg" viewBox="0 0 100 100" style=""><g id="default"><g><polygon fill="#A7A7A7" points="46.4,73 32.5,73 32.5,23 49.3,23 "></polygon><polygon fill="#A7A7A7" points="67.5,73 53.6,73 50.8,23 67.5,23 "></polygon><rect x="32.5" y="23" fill="#A7A7A7" width="30" height="19"></rect><rect x="31.5" y="73" fill="#C1C1C1" width="16" height="4"></rect><rect x="52.5" y="73" fill="#C1C1C1" width="16" height="4"></rect><polygon fill="#C1C1C1" points="52.5,33.7 47.5,33.7 47.5,23.9 52.5,23.8 "></polygon><rect x="32.5" y="23" fill="#999999" width="35" height="5"></rect></g></g><g id="active"><g><polygon fill="#78C557" points="46.4,73 32.5,73 32.5,23 49.3,23 "></polygon><polygon fill="#78C557" points="67.5,73 53.6,73 50.8,23 67.5,23 "></polygon><rect x="32.5" y="23" fill="#78C557" width="30" height="19"></rect><rect x="31.5" y="73" fill="#6DB24D" width="16" height="4"></rect><rect x="52.5" y="73" fill="#6DB24D" width="16" height="4"></rect><polygon opacity="0.1" fill="#FFFFFF" enable-background="new " points="52.5,33.7 47.5,33.7 47.5,23.9 52.5,23.8 "></polygon><rect x="32.5" y="23" fill="#6DB24D" width="35" height="5"></rect></g></g></svg>